<?xml version="1.0" standalone="no"?><svg xmlns="http://www.w3.org/2000/svg" viewBox="0 0 1440 320"><path fill="#9C0003" fill-opacity="1" d="M0,224L6.9,202.7C13.7,181,27,139,41,128C54.9,117,69,139,82,128C96,117,110,75,123,101.3C137.1,128,151,224,165,256C178.3,288,192,256,206,202.7C219.4,149,233,75,247,74.7C260.6,75,274,149,288,165.3C301.7,181,315,139,329,144C342.9,149,357,203,370,224C384,245,398,235,411,224C425.1,213,439,203,453,202.7C466.3,203,480,213,494,234.7C507.4,256,521,288,535,293.3C548.6,299,562,277,576,229.3C589.7,181,603,107,617,96C630.9,85,645,139,658,165.3C672,192,686,192,699,181.3C713.1,171,727,149,741,154.7C754.3,160,768,192,782,192C795.4,192,809,160,823,128C836.6,96,850,64,864,42.7C877.7,21,891,11,905,21.3C918.9,32,933,64,946,106.7C960,149,974,203,987,186.7C1001.1,171,1015,85,1029,96C1042.3,107,1056,213,1070,234.7C1083.4,256,1097,192,1111,154.7C1124.6,117,1138,107,1152,133.3C1165.7,160,1179,224,1193,256C1206.9,288,1221,288,1234,240C1248,192,1262,96,1275,74.7C1289.1,53,1303,107,1317,133.3C1330.3,160,1344,160,1358,149.3C1371.4,139,1385,117,1399,101.3C1412.6,85,1426,75,1433,69.3L1440,64L1440,0L1433.1,0C1426.3,0,1413,0,1399,0C1385.1,0,1371,0,1358,0C1344,0,1330,0,1317,0C1302.9,0,1289,0,1275,0C1261.7,0,1248,0,1234,0C1220.6,0,1207,0,1193,0C1179.4,0,1166,0,1152,0C1138.3,0,1125,0,1111,0C1097.1,0,1083,0,1070,0C1056,0,1042,0,1029,0C1014.9,0,1001,0,987,0C973.7,0,960,0,946,0C932.6,0,919,0,905,0C891.4,0,878,0,864,0C850.3,0,837,0,823,0C809.1,0,795,0,782,0C768,0,754,0,741,0C726.9,0,713,0,699,0C685.7,0,672,0,658,0C644.6,0,631,0,617,0C603.4,0,590,0,576,0C562.3,0,549,0,535,0C521.1,0,507,0,494,0C480,0,466,0,453,0C438.9,0,425,0,411,0C397.7,0,384,0,370,0C356.6,0,343,0,329,0C315.4,0,302,0,288,0C274.3,0,261,0,247,0C233.1,0,219,0,206,0C192,0,178,0,165,0C150.9,0,137,0,123,0C109.7,0,96,0,82,0C68.6,0,55,0,41,0C27.4,0,14,0,7,0L0,0Z"></path></svg>