<?xml version="1.0" standalone="no"?><svg xmlns="http://www.w3.org/2000/svg" viewBox="0 0 1440 320"><path fill="#9C0003" fill-opacity="1" d="M0,160L6.2,138.7C12.3,117,25,75,37,74.7C49.2,75,62,117,74,138.7C86.2,160,98,160,111,149.3C123.1,139,135,117,148,133.3C160,149,172,203,185,186.7C196.9,171,209,85,222,85.3C233.8,85,246,171,258,192C270.8,213,283,171,295,149.3C307.7,128,320,128,332,112C344.6,96,357,64,369,85.3C381.5,107,394,181,406,208C418.5,235,431,213,443,208C455.4,203,468,213,480,218.7C492.3,224,505,224,517,202.7C529.2,181,542,139,554,149.3C566.2,160,578,224,591,213.3C603.1,203,615,117,628,74.7C640,32,652,32,665,74.7C676.9,117,689,203,702,224C713.8,245,726,203,738,192C750.8,181,763,203,775,218.7C787.7,235,800,245,812,213.3C824.6,181,837,107,849,80C861.5,53,874,75,886,90.7C898.5,107,911,117,923,122.7C935.4,128,948,128,960,154.7C972.3,181,985,235,997,250.7C1009.2,267,1022,245,1034,197.3C1046.2,149,1058,75,1071,69.3C1083.1,64,1095,128,1108,144C1120,160,1132,128,1145,138.7C1156.9,149,1169,203,1182,186.7C1193.8,171,1206,85,1218,48C1230.8,11,1243,21,1255,48C1267.7,75,1280,117,1292,128C1304.6,139,1317,117,1329,133.3C1341.5,149,1354,203,1366,208C1378.5,213,1391,171,1403,138.7C1415.4,107,1428,85,1434,74.7L1440,64L1440,320L1433.8,320C1427.7,320,1415,320,1403,320C1390.8,320,1378,320,1366,320C1353.8,320,1342,320,1329,320C1316.9,320,1305,320,1292,320C1280,320,1268,320,1255,320C1243.1,320,1231,320,1218,320C1206.2,320,1194,320,1182,320C1169.2,320,1157,320,1145,320C1132.3,320,1120,320,1108,320C1095.4,320,1083,320,1071,320C1058.5,320,1046,320,1034,320C1021.5,320,1009,320,997,320C984.6,320,972,320,960,320C947.7,320,935,320,923,320C910.8,320,898,320,886,320C873.8,320,862,320,849,320C836.9,320,825,320,812,320C800,320,788,320,775,320C763.1,320,751,320,738,320C726.2,320,714,320,702,320C689.2,320,677,320,665,320C652.3,320,640,320,628,320C615.4,320,603,320,591,320C578.5,320,566,320,554,320C541.5,320,529,320,517,320C504.6,320,492,320,480,320C467.7,320,455,320,443,320C430.8,320,418,320,406,320C393.8,320,382,320,369,320C356.9,320,345,320,332,320C320,320,308,320,295,320C283.1,320,271,320,258,320C246.2,320,234,320,222,320C209.2,320,197,320,185,320C172.3,320,160,320,148,320C135.4,320,123,320,111,320C98.5,320,86,320,74,320C61.5,320,49,320,37,320C24.6,320,12,320,6,320L0,320Z"></path></svg>